# xmcd
#
# Track frame offsets:
#	150
#	34228
#	56104
#	76955
#	98553
#	115349
#	131075
#	145066
#	152907
#
# Disc length: 2188 seconds
#
# Revision: 1
# Processed by: cddbd v1.5PL3 Copyright (c) Steve Scherf et al.
# Submitted via: audiograbber 1.83.01
#
DISCID=77088a09
DTITLE=Paul and André - Live in America
DYEAR=1900
DGENRE=Nederlandstalig
TTITLE0=Musik Fabrik Blues
TTITLE1=Keetje
TTITLE2=La Paloma
TTITLE3=Omdat ik gek ben
TTITLE4=Schat van mijn hart
TTITLE5=Truusje
TTITLE6=Bullie
TTITLE7=Oh!
TTITLE8=Wild Ding
EXTD=
EXTT0=
EXTT1=
EXTT2=
EXTT3=
EXTT4=
EXTT5=
EXTT6=
EXTT7=
EXTT8=
PLAYORDER=
